<?xml version="1.0" encoding="UTF-8" standalone="no"?>
<!-- Created with Inkscape (http://www.inkscape.org/) -->

<svg
   xmlns:dc="http://purl.org/dc/elements/1.1/"
   xmlns:cc="http://creativecommons.org/ns#"
   xmlns:rdf="http://www.w3.org/1999/02/22-rdf-syntax-ns#"
   xmlns:svg="http://www.w3.org/2000/svg"
   xmlns="http://www.w3.org/2000/svg"
   xmlns:sodipodi="http://sodipodi.sourceforge.net/DTD/sodipodi-0.dtd"
   xmlns:inkscape="http://www.inkscape.org/namespaces/inkscape"
   width="599.92365"
   height="724.13904"
   id="svg6317"
   version="1.1"
   inkscape:version="0.48.3.1 r9886"
   sodipodi:docname="responsive_artifacts_venn.ink.svg">
  <defs
     id="defs6319">
    <marker
       inkscape:stockid="EmptyDiamondL"
       orient="auto"
       refY="0"
       refX="0"
       id="EmptyDiamondL"
       style="overflow:visible">
      <path
         inkscape:connector-curvature="0"
         id="path4901"
         d="M 0,-7.0710768 -7.0710894,0 0,7.0710589 7.0710462,0 0,-7.0710768 z"
         style="fill:#ffffff;fill-rule:evenodd;stroke:#000000;stroke-width:1pt"
         transform="scale(0.8,0.8)" />
    </marker>
    <marker
       inkscape:stockid="DotL"
       orient="auto"
       refY="0"
       refX="0"
       id="DotL"
       style="overflow:visible">
      <path
         inkscape:connector-curvature="0"
         id="path4856"
         d="m -2.5,-1 c 0,2.76 -2.24,5 -5,5 -2.76,0 -5,-2.24 -5,-5 0,-2.76 2.24,-5 5,-5 2.76,0 5,2.24 5,5 z"
         style="fill-rule:evenodd;stroke:#000000;stroke-width:1pt"
         transform="matrix(0.8,0,0,0.8,5.92,0.8)" />
    </marker>
    <marker
       inkscape:stockid="EmptyDiamondL"
       orient="auto"
       refY="0"
       refX="0"
       id="marker6202"
       style="overflow:visible">
      <path
         inkscape:connector-curvature="0"
         id="path6204"
         d="M 0,-7.0710768 -7.0710894,0 0,7.0710589 7.0710462,0 0,-7.0710768 z"
         style="fill:#ffffff;fill-rule:evenodd;stroke:#000000;stroke-width:1pt"
         transform="scale(0.8,0.8)" />
    </marker>
    <marker
       inkscape:stockid="DotL"
       orient="auto"
       refY="0"
       refX="0"
       id="marker6206"
       style="overflow:visible">
      <path
         inkscape:connector-curvature="0"
         id="path6208"
         d="m -2.5,-1 c 0,2.76 -2.24,5 -5,5 -2.76,0 -5,-2.24 -5,-5 0,-2.76 2.24,-5 5,-5 2.76,0 5,2.24 5,5 z"
         style="fill-rule:evenodd;stroke:#000000;stroke-width:1pt"
         transform="matrix(0.8,0,0,0.8,5.92,0.8)" />
    </marker>
    <marker
       inkscape:stockid="EmptyDiamondL"
       orient="auto"
       refY="0"
       refX="0"
       id="marker6210"
       style="overflow:visible">
      <path
         inkscape:connector-curvature="0"
         id="path6212"
         d="M 0,-7.0710768 -7.0710894,0 0,7.0710589 7.0710462,0 0,-7.0710768 z"
         style="fill:#ffffff;fill-rule:evenodd;stroke:#000000;stroke-width:1pt"
         transform="scale(0.8,0.8)" />
    </marker>
    <marker
       inkscape:stockid="DotL"
       orient="auto"
       refY="0"
       refX="0"
       id="marker6214"
       style="overflow:visible">
      <path
         inkscape:connector-curvature="0"
         id="path6216"
         d="m -2.5,-1 c 0,2.76 -2.24,5 -5,5 -2.76,0 -5,-2.24 -5,-5 0,-2.76 2.24,-5 5,-5 2.76,0 5,2.24 5,5 z"
         style="fill-rule:evenodd;stroke:#000000;stroke-width:1pt"
         transform="matrix(0.8,0,0,0.8,5.92,0.8)" />
    </marker>
    <marker
       inkscape:stockid="EmptyDiamondL"
       orient="auto"
       refY="0"
       refX="0"
       id="marker6218"
       style="overflow:visible">
      <path
         inkscape:connector-curvature="0"
         id="path6220"
         d="M 0,-7.0710768 -7.0710894,0 0,7.0710589 7.0710462,0 0,-7.0710768 z"
         style="fill:#ffffff;fill-rule:evenodd;stroke:#000000;stroke-width:1pt"
         transform="scale(0.8,0.8)" />
    </marker>
    <marker
       inkscape:stockid="DotL"
       orient="auto"
       refY="0"
       refX="0"
       id="marker6222"
       style="overflow:visible">
      <path
         inkscape:connector-curvature="0"
         id="path6224"
         d="m -2.5,-1 c 0,2.76 -2.24,5 -5,5 -2.76,0 -5,-2.24 -5,-5 0,-2.76 2.24,-5 5,-5 2.76,0 5,2.24 5,5 z"
         style="fill-rule:evenodd;stroke:#000000;stroke-width:1pt"
         transform="matrix(0.8,0,0,0.8,5.92,0.8)" />
    </marker>
    <marker
       inkscape:stockid="EmptyDiamondL"
       orient="auto"
       refY="0"
       refX="0"
       id="marker6226"
       style="overflow:visible">
      <path
         inkscape:connector-curvature="0"
         id="path6228"
         d="M 0,-7.0710768 -7.0710894,0 0,7.0710589 7.0710462,0 0,-7.0710768 z"
         style="fill:#ffffff;fill-rule:evenodd;stroke:#000000;stroke-width:1pt"
         transform="scale(0.8,0.8)" />
    </marker>
    <marker
       inkscape:stockid="DotL"
       orient="auto"
       refY="0"
       refX="0"
       id="marker6230"
       style="overflow:visible">
      <path
         inkscape:connector-curvature="0"
         id="path6232"
         d="m -2.5,-1 c 0,2.76 -2.24,5 -5,5 -2.76,0 -5,-2.24 -5,-5 0,-2.76 2.24,-5 5,-5 2.76,0 5,2.24 5,5 z"
         style="fill-rule:evenodd;stroke:#000000;stroke-width:1pt"
         transform="matrix(0.8,0,0,0.8,5.92,0.8)" />
    </marker>
    <marker
       inkscape:stockid="EmptyDiamondL"
       orient="auto"
       refY="0"
       refX="0"
       id="marker6234"
       style="overflow:visible">
      <path
         inkscape:connector-curvature="0"
         id="path6236"
         d="M 0,-7.0710768 -7.0710894,0 0,7.0710589 7.0710462,0 0,-7.0710768 z"
         style="fill:#ffffff;fill-rule:evenodd;stroke:#000000;stroke-width:1pt"
         transform="scale(0.8,0.8)" />
    </marker>
    <marker
       inkscape:stockid="DotL"
       orient="auto"
       refY="0"
       refX="0"
       id="marker6238"
       style="overflow:visible">
      <path
         inkscape:connector-curvature="0"
         id="path6240"
         d="m -2.5,-1 c 0,2.76 -2.24,5 -5,5 -2.76,0 -5,-2.24 -5,-5 0,-2.76 2.24,-5 5,-5 2.76,0 5,2.24 5,5 z"
         style="fill-rule:evenodd;stroke:#000000;stroke-width:1pt"
         transform="matrix(0.8,0,0,0.8,5.92,0.8)" />
    </marker>
    <marker
       inkscape:stockid="EmptyDiamondL"
       orient="auto"
       refY="0"
       refX="0"
       id="marker6242"
       style="overflow:visible">
      <path
         inkscape:connector-curvature="0"
         id="path6244"
         d="M 0,-7.0710768 -7.0710894,0 0,7.0710589 7.0710462,0 0,-7.0710768 z"
         style="fill:#ffffff;fill-rule:evenodd;stroke:#000000;stroke-width:1pt"
         transform="scale(0.8,0.8)" />
    </marker>
    <marker
       inkscape:stockid="DotL"
       orient="auto"
       refY="0"
       refX="0"
       id="marker6246"
       style="overflow:visible">
      <path
         inkscape:connector-curvature="0"
         id="path6248"
         d="m -2.5,-1 c 0,2.76 -2.24,5 -5,5 -2.76,0 -5,-2.24 -5,-5 0,-2.76 2.24,-5 5,-5 2.76,0 5,2.24 5,5 z"
         style="fill-rule:evenodd;stroke:#000000;stroke-width:1pt"
         transform="matrix(0.8,0,0,0.8,5.92,0.8)" />
    </marker>
    <marker
       inkscape:stockid="EmptyDiamondL"
       orient="auto"
       refY="0"
       refX="0"
       id="marker6250"
       style="overflow:visible">
      <path
         inkscape:connector-curvature="0"
         id="path6252"
         d="M 0,-7.0710768 -7.0710894,0 0,7.0710589 7.0710462,0 0,-7.0710768 z"
         style="fill:#ffffff;fill-rule:evenodd;stroke:#000000;stroke-width:1pt"
         transform="scale(0.8,0.8)" />
    </marker>
    <marker
       inkscape:stockid="DotL"
       orient="auto"
       refY="0"
       refX="0"
       id="marker6254"
       style="overflow:visible">
      <path
         inkscape:connector-curvature="0"
         id="path6256"
         d="m -2.5,-1 c 0,2.76 -2.24,5 -5,5 -2.76,0 -5,-2.24 -5,-5 0,-2.76 2.24,-5 5,-5 2.76,0 5,2.24 5,5 z"
         style="fill-rule:evenodd;stroke:#000000;stroke-width:1pt"
         transform="matrix(0.8,0,0,0.8,5.92,0.8)" />
    </marker>
    <marker
       inkscape:stockid="EmptyDiamondL"
       orient="auto"
       refY="0"
       refX="0"
       id="EmptyDiamondL-9"
       style="overflow:visible">
      <path
         inkscape:connector-curvature="0"
         id="path4901-4"
         d="M 0,-7.0710768 -7.0710894,0 0,7.0710589 7.0710462,0 0,-7.0710768 z"
         style="fill:#ffffff;fill-rule:evenodd;stroke:#000000;stroke-width:1pt"
         transform="scale(0.8,0.8)" />
    </marker>
    <marker
       inkscape:stockid="DotL"
       orient="auto"
       refY="0"
       refX="0"
       id="DotL-6"
       style="overflow:visible">
      <path
         inkscape:connector-curvature="0"
         id="path4856-9"
         d="m -2.5,-1 c 0,2.76 -2.24,5 -5,5 -2.76,0 -5,-2.24 -5,-5 0,-2.76 2.24,-5 5,-5 2.76,0 5,2.24 5,5 z"
         style="fill-rule:evenodd;stroke:#000000;stroke-width:1pt"
         transform="matrix(0.8,0,0,0.8,5.92,0.8)" />
    </marker>
    <marker
       inkscape:stockid="EmptyDiamondL"
       orient="auto"
       refY="0"
       refX="0"
       id="EmptyDiamondL-1"
       style="overflow:visible">
      <path
         inkscape:connector-curvature="0"
         id="path4901-6"
         d="M 0,-7.0710768 -7.0710894,0 0,7.0710589 7.0710462,0 0,-7.0710768 z"
         style="fill:#ffffff;fill-rule:evenodd;stroke:#000000;stroke-width:1pt"
         transform="scale(0.8,0.8)" />
    </marker>
    <marker
       inkscape:stockid="DotL"
       orient="auto"
       refY="0"
       refX="0"
       id="DotL-1"
       style="overflow:visible">
      <path
         inkscape:connector-curvature="0"
         id="path4856-5"
         d="m -2.5,-1 c 0,2.76 -2.24,5 -5,5 -2.76,0 -5,-2.24 -5,-5 0,-2.76 2.24,-5 5,-5 2.76,0 5,2.24 5,5 z"
         style="fill-rule:evenodd;stroke:#000000;stroke-width:1pt"
         transform="matrix(0.8,0,0,0.8,5.92,0.8)" />
    </marker>
    <marker
       inkscape:stockid="EmptyDiamondL"
       orient="auto"
       refY="0"
       refX="0"
       id="EmptyDiamondL-3"
       style="overflow:visible">
      <path
         inkscape:connector-curvature="0"
         id="path4901-66"
         d="M 0,-7.0710768 -7.0710894,0 0,7.0710589 7.0710462,0 0,-7.0710768 z"
         style="fill:#ffffff;fill-rule:evenodd;stroke:#000000;stroke-width:1pt"
         transform="scale(0.8,0.8)" />
    </marker>
    <marker
       inkscape:stockid="DotL"
       orient="auto"
       refY="0"
       refX="0"
       id="DotL-3"
       style="overflow:visible">
      <path
         inkscape:connector-curvature="0"
         id="path4856-1"
         d="m -2.5,-1 c 0,2.76 -2.24,5 -5,5 -2.76,0 -5,-2.24 -5,-5 0,-2.76 2.24,-5 5,-5 2.76,0 5,2.24 5,5 z"
         style="fill-rule:evenodd;stroke:#000000;stroke-width:1pt"
         transform="matrix(0.8,0,0,0.8,5.92,0.8)" />
    </marker>
    <marker
       inkscape:stockid="EmptyDiamondL"
       orient="auto"
       refY="0"
       refX="0"
       id="EmptyDiamondL-30"
       style="overflow:visible">
      <path
         inkscape:connector-curvature="0"
         id="path4901-7"
         d="M 0,-7.0710768 -7.0710894,0 0,7.0710589 7.0710462,0 0,-7.0710768 z"
         style="fill:#ffffff;fill-rule:evenodd;stroke:#000000;stroke-width:1pt"
         transform="scale(0.8,0.8)" />
    </marker>
    <marker
       inkscape:stockid="DotL"
       orient="auto"
       refY="0"
       refX="0"
       id="DotL-63"
       style="overflow:visible">
      <path
         inkscape:connector-curvature="0"
         id="path4856-2"
         d="m -2.5,-1 c 0,2.76 -2.24,5 -5,5 -2.76,0 -5,-2.24 -5,-5 0,-2.76 2.24,-5 5,-5 2.76,0 5,2.24 5,5 z"
         style="fill-rule:evenodd;stroke:#000000;stroke-width:1pt"
         transform="matrix(0.8,0,0,0.8,5.92,0.8)" />
    </marker>
    <marker
       inkscape:stockid="EmptyDiamondL"
       orient="auto"
       refY="0"
       refX="0"
       id="EmptyDiamondL-4"
       style="overflow:visible">
      <path
         inkscape:connector-curvature="0"
         id="path4901-2"
         d="M 0,-7.0710768 -7.0710894,0 0,7.0710589 7.0710462,0 0,-7.0710768 z"
         style="fill:#ffffff;fill-rule:evenodd;stroke:#000000;stroke-width:1pt"
         transform="scale(0.8,0.8)" />
    </marker>
    <marker
       inkscape:stockid="DotL"
       orient="auto"
       refY="0"
       refX="0"
       id="DotL-18"
       style="overflow:visible">
      <path
         inkscape:connector-curvature="0"
         id="path4856-15"
         d="m -2.5,-1 c 0,2.76 -2.24,5 -5,5 -2.76,0 -5,-2.24 -5,-5 0,-2.76 2.24,-5 5,-5 2.76,0 5,2.24 5,5 z"
         style="fill-rule:evenodd;stroke:#000000;stroke-width:1pt"
         transform="matrix(0.8,0,0,0.8,5.92,0.8)" />
    </marker>
    <marker
       inkscape:stockid="EmptyDiamondL"
       orient="auto"
       refY="0"
       refX="0"
       id="EmptyDiamondL-8"
       style="overflow:visible">
      <path
         inkscape:connector-curvature="0"
         id="path4901-44"
         d="M 0,-7.0710768 -7.0710894,0 0,7.0710589 7.0710462,0 0,-7.0710768 z"
         style="fill:#ffffff;fill-rule:evenodd;stroke:#000000;stroke-width:1pt"
         transform="scale(0.8,0.8)" />
    </marker>
    <marker
       inkscape:stockid="DotL"
       orient="auto"
       refY="0"
       refX="0"
       id="DotL-65"
       style="overflow:visible">
      <path
         inkscape:connector-curvature="0"
         id="path4856-18"
         d="m -2.5,-1 c 0,2.76 -2.24,5 -5,5 -2.76,0 -5,-2.24 -5,-5 0,-2.76 2.24,-5 5,-5 2.76,0 5,2.24 5,5 z"
         style="fill-rule:evenodd;stroke:#000000;stroke-width:1pt"
         transform="matrix(0.8,0,0,0.8,5.92,0.8)" />
    </marker>
    <marker
       inkscape:stockid="EmptyDiamondL"
       orient="auto"
       refY="0"
       refX="0"
       id="EmptyDiamondL-6"
       style="overflow:visible">
      <path
         inkscape:connector-curvature="0"
         id="path4901-69"
         d="M 0,-7.0710768 -7.0710894,0 0,7.0710589 7.0710462,0 0,-7.0710768 z"
         style="fill:#ffffff;fill-rule:evenodd;stroke:#000000;stroke-width:1pt"
         transform="scale(0.8,0.8)" />
    </marker>
    <marker
       inkscape:stockid="DotL"
       orient="auto"
       refY="0"
       refX="0"
       id="DotL-8"
       style="overflow:visible">
      <path
         inkscape:connector-curvature="0"
         id="path4856-183"
         d="m -2.5,-1 c 0,2.76 -2.24,5 -5,5 -2.76,0 -5,-2.24 -5,-5 0,-2.76 2.24,-5 5,-5 2.76,0 5,2.24 5,5 z"
         style="fill-rule:evenodd;stroke:#000000;stroke-width:1pt"
         transform="matrix(0.8,0,0,0.8,5.92,0.8)" />
    </marker>
  </defs>
  <sodipodi:namedview
     id="base"
     pagecolor="#ffffff"
     bordercolor="#666666"
     borderopacity="1.0"
     inkscape:pageopacity="0.0"
     inkscape:pageshadow="2"
     inkscape:zoom="0.98994949"
     inkscape:cx="322.38601"
     inkscape:cy="372.56858"
     inkscape:document-units="mm"
     inkscape:current-layer="layer1"
     showgrid="false"
     units="mm"
     fit-margin-top="10"
     fit-margin-left="10"
     fit-margin-bottom="15"
     fit-margin-right="10"
     inkscape:window-width="1855"
     inkscape:window-height="1056"
     inkscape:window-x="65"
     inkscape:window-y="24"
     inkscape:window-maximized="1" />
  <metadata
     id="metadata6322">
    <rdf:RDF>
      <cc:Work
         rdf:about="">
        <dc:format>image/svg+xml</dc:format>
        <dc:type
           rdf:resource="http://purl.org/dc/dcmitype/StillImage" />
        <dc:title></dc:title>
      </cc:Work>
    </rdf:RDF>
  </metadata>
  <g
     inkscape:label="Layer 1"
     inkscape:groupmode="layer"
     id="layer1"
     transform="translate(-63.106314,-172.47477)">
    <text
       xml:space="preserve"
       style="font-size:20px;font-style:normal;font-variant:normal;font-weight:bold;font-stretch:normal;text-indent:0;text-align:start;text-decoration:none;line-height:125%;letter-spacing:0px;word-spacing:0px;text-transform:none;direction:ltr;block-progression:tb;writing-mode:lr-tb;text-anchor:start;baseline-shift:baseline;color:#000000;fill:#000000;fill-opacity:1;fill-rule:nonzero;stroke:none;marker:none;visibility:visible;display:inline;overflow:visible;enable-background:accumulate;font-family:Nimbus Sans L;-inkscape-font-specification:Nimbus Sans L Bold"
       x="218.02661"
       y="597.92621"
       id="text4474"
       sodipodi:linespacing="125%"><tspan
         sodipodi:role="line"
         id="tspan4476"
         x="218.02661"
         y="597.92621"
         style="font-size:20px;font-style:normal;font-variant:normal;font-weight:bold;font-stretch:normal;text-indent:0;text-align:start;text-decoration:none;line-height:125%;letter-spacing:0px;word-spacing:0px;text-transform:none;direction:ltr;block-progression:tb;writing-mode:lr-tb;text-anchor:start;baseline-shift:baseline;color:#000000;fill:#000000;fill-opacity:1;fill-rule:nonzero;stroke:none;marker:none;visibility:visible;display:inline;overflow:visible;enable-background:accumulate;font-family:Nimbus Sans L;-inkscape-font-specification:Nimbus Sans L Bold">devices</tspan></text>
    <text
       xml:space="preserve"
       style="font-size:16px;font-style:normal;font-variant:normal;font-weight:normal;font-stretch:normal;text-indent:0;text-align:start;text-decoration:none;line-height:125%;letter-spacing:0px;word-spacing:0px;text-transform:none;direction:ltr;block-progression:tb;writing-mode:lr-tb;text-anchor:start;baseline-shift:baseline;color:#000000;fill:#000000;fill-opacity:1;fill-rule:nonzero;stroke:none;marker:none;visibility:visible;display:inline;overflow:visible;enable-background:accumulate;font-family:Nimbus Sans L;-inkscape-font-specification:Nimbus Sans L"
       x="359.8989"
       y="423.7175"
       id="text3561-4"
       sodipodi:linespacing="125%"><tspan
         sodipodi:role="line"
         id="tspan3563-8"
         x="359.8989"
         y="423.7175">figs</tspan></text>
    <text
       xml:space="preserve"
       style="font-size:16px;font-style:normal;font-variant:normal;font-weight:normal;font-stretch:normal;text-indent:0;text-align:start;text-decoration:none;line-height:125%;letter-spacing:0px;word-spacing:0px;text-transform:none;direction:ltr;block-progression:tb;writing-mode:lr-tb;text-anchor:start;baseline-shift:baseline;color:#000000;fill:#000000;fill-opacity:1;fill-rule:nonzero;stroke:none;marker:none;visibility:visible;display:inline;overflow:visible;enable-background:accumulate;font-family:Nimbus Sans L;-inkscape-font-specification:Nimbus Sans L"
       x="222.62053"
       y="531.58905"
       id="text4541"
       sodipodi:linespacing="125%"><tspan
         sodipodi:role="line"
         id="tspan4543"
         x="222.62053"
         y="531.58905">popcicles</tspan></text>
    <text
       xml:space="preserve"
       style="font-size:16px;font-style:normal;font-variant:normal;font-weight:normal;font-stretch:normal;text-indent:0;text-align:start;text-decoration:none;line-height:125%;letter-spacing:0px;word-spacing:0px;text-transform:none;direction:ltr;block-progression:tb;writing-mode:lr-tb;text-anchor:start;baseline-shift:baseline;color:#000000;fill:#000000;fill-opacity:1;fill-rule:nonzero;stroke:none;marker:none;visibility:visible;display:inline;overflow:visible;enable-background:accumulate;font-family:Nimbus Sans L;-inkscape-font-specification:Nimbus Sans L"
       x="537.14771"
       y="435.65942"
       id="text4545"
       sodipodi:linespacing="125%"><tspan
         sodipodi:role="line"
         id="tspan4547"
         x="537.14771"
         y="435.65942">robunculi</tspan></text>
    <text
       xml:space="preserve"
       style="font-size:16px;font-style:normal;font-variant:normal;font-weight:normal;font-stretch:normal;text-indent:0;text-align:start;text-decoration:none;line-height:125%;letter-spacing:0px;word-spacing:0px;text-transform:none;direction:ltr;block-progression:tb;writing-mode:lr-tb;text-anchor:start;baseline-shift:baseline;color:#000000;fill:#000000;fill-opacity:1;fill-rule:nonzero;stroke:none;marker:none;visibility:visible;display:inline;overflow:visible;enable-background:accumulate;font-family:Nimbus Sans L;-inkscape-font-specification:Nimbus Sans L"
       x="481.25644"
       y="653.42365"
       id="text4549"
       sodipodi:linespacing="125%"><tspan
         sodipodi:role="line"
         id="tspan4551"
         x="481.25644"
         y="653.42365">claytronics</tspan></text>
    <text
       xml:space="preserve"
       style="font-size:16px;font-style:normal;font-variant:normal;font-weight:normal;font-stretch:normal;text-indent:0;text-align:start;text-decoration:none;line-height:125%;letter-spacing:0px;word-spacing:0px;text-transform:none;direction:ltr;block-progression:tb;writing-mode:lr-tb;text-anchor:start;baseline-shift:baseline;color:#000000;fill:#000000;fill-opacity:1;fill-rule:nonzero;stroke:none;marker:none;visibility:visible;display:inline;overflow:visible;enable-background:accumulate;font-family:Nimbus Sans L;-inkscape-font-specification:Nimbus Sans L"
       x="409.9335"
       y="505.0686"
       id="text4553"
       sodipodi:linespacing="125%"><tspan
         sodipodi:role="line"
         id="tspan4555"
         x="409.9335"
         y="505.0686">hyperforms</tspan></text>
    <path
       style="color:#000000;fill:none;stroke:#000000;stroke-width:2.48031496999999979;stroke-linecap:butt;stroke-linejoin:miter;stroke-miterlimit:4;stroke-opacity:1;stroke-dasharray:none;stroke-dashoffset:0;marker:none;visibility:visible;display:inline;overflow:visible;enable-background:accumulate"
       d="m 331.36203,320.06852 c -260.011003,-4.64304 -250.543603,341.80754 15.7142,348.57143 266.2578,6.76389 244.2967,-343.92839 -15.7142,-348.57143 z"
       id="path4557"
       inkscape:connector-curvature="0"
       sodipodi:nodetypes="zzz" />
    <path
       style="fill:none;stroke:#000000;stroke-width:1px;stroke-linecap:butt;stroke-linejoin:miter;stroke-opacity:1"
       d="m 507.79043,337.92566 c -90.231,-0.67774 -328.50249,43.33633 -313.47141,125.76911 15.03107,82.43277 183.29291,23.51661 240.61431,17.08803 57.3214,-6.42857 185.40087,11.54157 191.48537,-24.89614 6.0845,-36.43771 -28.39727,-117.28326 -118.62827,-117.961 z"
       id="path4559"
       inkscape:connector-curvature="0"
       sodipodi:nodetypes="zzzsz" />
    <path
       style="fill:none;stroke:#000000;stroke-width:1px;stroke-linecap:butt;stroke-linejoin:miter;stroke-opacity:1"
       d="m 455.95873,387.53011 c -82.1538,-5.35732 -98.4008,250.37897 -16.4287,252.85715 81.9721,2.47818 98.5825,-247.49982 16.4287,-252.85715 z"
       id="path4557-7"
       inkscape:connector-curvature="0"
       sodipodi:nodetypes="zzz" />
    <path
       style="fill:none;stroke:#000000;stroke-width:1px;stroke-linecap:butt;stroke-linejoin:miter;stroke-opacity:1"
       d="m 486.45643,529.7349 c -193.2295,-73.86624 -237.0554,160.76025 -95.9359,218.06437 141.1196,57.30412 289.1654,-144.19813 95.9359,-218.06437 z"
       id="path4559-2"
       inkscape:connector-curvature="0"
       sodipodi:nodetypes="zzz" />
    <text
       xml:space="preserve"
       style="font-size:16px;font-style:normal;font-variant:normal;font-weight:normal;font-stretch:normal;text-indent:0;text-align:start;text-decoration:none;line-height:125%;letter-spacing:0px;word-spacing:0px;text-transform:none;direction:ltr;block-progression:tb;writing-mode:lr-tb;text-anchor:start;baseline-shift:baseline;color:#000000;fill:#000000;fill-opacity:1;fill-rule:nonzero;stroke:none;marker:none;visibility:visible;display:inline;overflow:visible;enable-background:accumulate;font-family:Nimbus Sans L;-inkscape-font-specification:Nimbus Sans L"
       x="333.49008"
       y="607.71643"
       id="text4597"
       sodipodi:linespacing="125%"><tspan
         sodipodi:role="line"
         id="tspan4599"
         x="333.49008"
         y="607.71643">thous</tspan></text>
    <path
       style="fill:none;stroke:#000000;stroke-width:1px;stroke-linecap:butt;stroke-linejoin:miter;stroke-opacity:1"
       d="m 372.57386,395.09699 c -32.87765,-0.21439 -46.02495,46.94851 -1.17596,45.51993 44.84899,-1.42858 34.05361,-45.30554 1.17596,-45.51993 z"
       id="path4601"
       inkscape:connector-curvature="0"
       sodipodi:nodetypes="zzz" />
    <path
       style="fill:none;stroke:#000000;stroke-width:1px;stroke-linecap:butt;stroke-linejoin:miter;stroke-opacity:1"
       d="m 357.15507,578.12048 c -41.36242,-6.45914 -49.84148,57.70919 -3.9285,52.85713 45.91298,-4.85206 45.29092,-46.398 3.9285,-52.85713 z"
       id="path4601-5"
       inkscape:connector-curvature="0"
       sodipodi:nodetypes="zzz" />
    <path
       style="fill:none;stroke:#000000;stroke-width:1px;stroke-linecap:butt;stroke-linejoin:miter;stroke-opacity:1"
       d="m 272.42683,383.6723 c -119.2967,-2.50018 -125.00276,168.74734 -28.74496,174.79695 96.2579,6.04961 148.04166,-172.29677 28.74496,-174.79695 z"
       id="path4557-7-3"
       inkscape:connector-curvature="0"
       sodipodi:nodetypes="zzz" />
    <text
       xml:space="preserve"
       style="font-size:16px;font-style:normal;font-variant:normal;font-weight:normal;font-stretch:normal;text-indent:0;text-align:start;text-decoration:none;line-height:125%;letter-spacing:0px;word-spacing:0px;text-transform:none;direction:ltr;block-progression:tb;writing-mode:lr-tb;text-anchor:start;baseline-shift:baseline;color:#000000;fill:#000000;fill-opacity:1;fill-rule:nonzero;stroke:none;marker:none;visibility:visible;display:inline;overflow:visible;enable-background:accumulate;font-family:Nimbus Sans L;-inkscape-font-specification:Nimbus Sans L"
       x="405.33524"
       y="580.65894"
       id="text3557-7-1"
       sodipodi:linespacing="125%"><tspan
         sodipodi:role="line"
         id="tspan3559-1-5"
         x="405.33524"
         y="580.65894">hyperthous</tspan></text>
    <path
       style="fill:none;stroke:#000000;stroke-width:1px;stroke-linecap:butt;stroke-linejoin:miter;stroke-opacity:1"
       d="m 443.55273,555.46335 c -63.9026,0.88241 -58.53533,42.69869 3.62226,44.50978 62.1576,1.81109 60.28034,-45.39219 -3.62226,-44.50978 z"
       id="path4601-8-9-3"
       inkscape:connector-curvature="0"
       sodipodi:nodetypes="zzz" />
    <text
       xml:space="preserve"
       style="font-size:16px;font-style:normal;font-variant:normal;font-weight:normal;font-stretch:normal;text-indent:0;text-align:start;text-decoration:none;line-height:125%;letter-spacing:0px;word-spacing:0px;text-transform:none;direction:ltr;block-progression:tb;writing-mode:lr-tb;text-anchor:start;baseline-shift:baseline;color:#000000;fill:#000000;fill-opacity:1;fill-rule:nonzero;stroke:none;marker:none;visibility:visible;display:inline;overflow:visible;enable-background:accumulate;font-family:Nimbus Sans L;-inkscape-font-specification:Nimbus Sans L"
       x="417.35733"
       y="455.03265"
       id="text4743"
       sodipodi:linespacing="125%"><tspan
         sodipodi:role="line"
         id="tspan4745"
         x="417.35733"
         y="455.03265">hyperfigs</tspan></text>
    <text
       xml:space="preserve"
       style="font-size:20px;font-style:normal;font-variant:normal;font-weight:normal;font-stretch:normal;line-height:125%;letter-spacing:0px;word-spacing:0px;fill:#000000;fill-opacity:1;stroke:none;font-family:Nimbus Sans L;-inkscape-font-specification:Nimbus Sans L"
       x="212.91017"
       y="247.24843"
       id="text4474-1"
       sodipodi:linespacing="125%"><tspan
         sodipodi:role="line"
         id="tspan4476-4"
         x="212.91017"
         y="247.24843"
         style="font-size:20px;font-weight:bold;-inkscape-font-specification:Nimbus Sans L Bold">modules</tspan></text>
    <path
       style="fill:none;stroke:#000000;stroke-width:1px;stroke-linecap:butt;stroke-linejoin:miter;stroke-opacity:1"
       d="m 454.77211,429.03478 c -55.82138,-1.64297 -68.63686,48.25453 -2.43866,40.46917 66.19821,-7.78536 58.26003,-38.8262 2.43866,-40.46917 z"
       id="path4601-8-9-3-2"
       inkscape:connector-curvature="0"
       sodipodi:nodetypes="zzz" />
    <path
       style="color:#000000;fill:none;stroke:#000000;stroke-width:1.41732287;stroke-linecap:butt;stroke-linejoin:miter;stroke-miterlimit:4;stroke-opacity:1;stroke-dasharray:5.66929134, 2.83464567, 1.41732283, 2.83464567;stroke-dashoffset:0;marker:none;marker-start:url(#EmptyDiamondL);marker-end:url(#DotL);visibility:visible;display:inline;overflow:visible;enable-background:accumulate"
       d="m 394.79204,401.51597 c 22.2233,-16.66752 51.51779,12.37437 50.50759,27.52665"
       id="path4789"
       inkscape:connector-curvature="0"
       sodipodi:nodetypes="cc" />
    <path
       style="color:#000000;fill:none;stroke:#000000;stroke-width:1.41732287;stroke-linecap:butt;stroke-linejoin:miter;stroke-miterlimit:4;stroke-opacity:1;stroke-dasharray:5.66929134, 2.83464567, 1.41732283, 2.83464567;stroke-dashoffset:0;marker:none;marker-start:url(#EmptyDiamondL);marker-end:url(#DotL);visibility:visible;display:inline;overflow:visible;enable-background:accumulate"
       d="m 358.63353,576.30482 c 9.72331,-52.73895 80.5584,-36.1686 79.5482,-21.01632"
       id="path4789-2"
       inkscape:connector-curvature="0"
       sodipodi:nodetypes="cc" />
    <text
       xml:space="preserve"
       style="font-size:16px;font-style:normal;font-variant:normal;font-weight:normal;font-stretch:normal;text-indent:0;text-align:start;text-decoration:none;line-height:125%;letter-spacing:0px;word-spacing:0px;text-transform:none;direction:ltr;block-progression:tb;writing-mode:lr-tb;text-anchor:start;baseline-shift:baseline;color:#000000;fill:#000000;fill-opacity:1;fill-rule:nonzero;stroke:none;marker:none;visibility:visible;display:inline;overflow:visible;enable-background:accumulate;font-family:Nimbus Sans L;-inkscape-font-specification:Nimbus Sans L"
       x="421.85483"
       y="718.34277"
       id="text3557-7-1-0"
       sodipodi:linespacing="125%"><tspan
         sodipodi:role="line"
         id="tspan3559-1-5-7"
         x="421.85483"
         y="718.34277">clayticles</tspan></text>
    <path
       style="fill:none;stroke:#000000;stroke-width:1px;stroke-linecap:butt;stroke-linejoin:miter;stroke-opacity:1"
       d="m 453.19569,693.67764 c -58.28113,-2.50519 -54.28551,42.85714 -0.71421,42.14285 53.5713,-0.71429 58.99534,-39.63766 0.71421,-42.14285 z"
       id="path4601-8-9-3-26"
       inkscape:connector-curvature="0"
       sodipodi:nodetypes="zzz" />
    <text
       xml:space="preserve"
       style="font-size:16px;font-style:normal;font-variant:normal;font-weight:normal;font-stretch:normal;text-indent:0;text-align:start;text-decoration:none;line-height:125%;letter-spacing:0px;word-spacing:0px;text-transform:none;direction:ltr;block-progression:tb;writing-mode:lr-tb;text-anchor:start;baseline-shift:baseline;color:#000000;fill:#000000;fill-opacity:1;fill-rule:nonzero;stroke:none;marker:none;visibility:visible;display:inline;overflow:visible;enable-background:accumulate;font-family:Nimbus Sans L;-inkscape-font-specification:Nimbus Sans L"
       x="513.76318"
       y="384.23041"
       id="text3557-7-1-0-4"
       sodipodi:linespacing="125%"><tspan
         sodipodi:role="line"
         id="tspan3559-1-5-7-6"
         x="513.76318"
         y="384.23041">bunkles</tspan></text>
    <path
       style="fill:none;stroke:#000000;stroke-width:1px;stroke-linecap:butt;stroke-linejoin:miter;stroke-opacity:1"
       d="m 532.48124,358.67764 c -54.09701,2.43353 -32.80611,37.96917 12.90801,38.32631 45.71411,0.35715 41.189,-40.75984 -12.90801,-38.32631 z"
       id="path4601-8-9-3-26-1"
       inkscape:connector-curvature="0"
       sodipodi:nodetypes="zzz" />
    <path
       style="color:#000000;fill:none;stroke:#000000;stroke-width:1.41732287;stroke-linecap:butt;stroke-linejoin:miter;stroke-miterlimit:4;stroke-opacity:1;stroke-dasharray:5.66929134, 2.83464567, 1.41732283, 2.83464567;stroke-dashoffset:0;marker:none;marker-start:url(#EmptyDiamondL);marker-end:url(#DotL);visibility:visible;display:inline;overflow:visible;enable-background:accumulate"
       d="m 510.77653,362.73339 c -28.491,-49.52466 -147.45726,-4.3798 -141.07947,31.78263"
       id="path4789-4"
       inkscape:connector-curvature="0"
       sodipodi:nodetypes="cc" />
    <path
       style="color:#000000;fill:none;stroke:#000000;stroke-width:1.41732287;stroke-linecap:butt;stroke-linejoin:miter;stroke-miterlimit:4;stroke-opacity:1;stroke-dasharray:5.66929134, 2.83464567, 1.41732283, 2.83464567;stroke-dashoffset:0;marker:none;marker-start:url(#EmptyDiamondL);marker-end:url(#DotL);visibility:visible;display:inline;overflow:visible;enable-background:accumulate"
       d="m 410.06213,712.73339 c -54.2052,-1.66752 -89.08433,-51.88288 -70.45171,-82.80203"
       id="path4789-8"
       inkscape:connector-curvature="0"
       sodipodi:nodetypes="cc" />
    <text
       xml:space="preserve"
       style="font-size:16px;font-style:normal;font-variant:normal;font-weight:normal;font-stretch:normal;text-indent:0;text-align:start;text-decoration:none;line-height:125%;letter-spacing:0px;word-spacing:0px;text-transform:none;direction:ltr;block-progression:tb;writing-mode:lr-tb;text-anchor:start;baseline-shift:baseline;color:#000000;fill:#000000;fill-opacity:1;fill-rule:nonzero;stroke:none;marker:none;visibility:visible;display:inline;overflow:visible;enable-background:accumulate;font-family:Nimbus Sans L;-inkscape-font-specification:Nimbus Sans L"
       x="244.01688"
       y="449.83261"
       id="text3557-7-13"
       sodipodi:linespacing="125%"><tspan
         sodipodi:role="line"
         id="tspan3559-1-6"
         x="244.01688"
         y="449.83261">volticles</tspan></text>
    <path
       style="fill:none;stroke:#000000;stroke-width:1px;stroke-linecap:butt;stroke-linejoin:miter;stroke-opacity:1"
       d="m 269.26703,404.74907 c -62.56689,-10.36234 -90.35694,72.85713 -1.4285,79.2857 88.92844,6.42857 63.99539,-68.92336 1.4285,-79.2857 z"
       id="path4601-8-9-6"
       inkscape:connector-curvature="0"
       sodipodi:nodetypes="zzz" />
    <path
       style="color:#000000;fill:none;stroke:#000000;stroke-width:1.41732287;stroke-linecap:butt;stroke-linejoin:miter;stroke-miterlimit:4;stroke-opacity:1;stroke-dasharray:5.66929134, 2.83464567, 1.41732283, 2.83464567;stroke-dashoffset:0;marker:none;marker-start:url(#EmptyDiamondL);marker-end:url(#DotL);visibility:visible;display:inline;overflow:visible;enable-background:accumulate"
       d="m 285.77643,409.87624 c 6.509,-28.81038 43.71763,-37.30874 60.66605,-4.14086"
       id="path4789-5"
       inkscape:connector-curvature="0"
       sodipodi:nodetypes="cc" />
    <path
       style="color:#000000;fill:none;stroke:#000000;stroke-width:2.48031496;stroke-linecap:butt;stroke-linejoin:miter;stroke-miterlimit:4;stroke-opacity:1;stroke-dasharray:none;stroke-dashoffset:0;marker:none;visibility:visible;display:inline;overflow:visible;enable-background:accumulate"
       d="m 327.77133,473.82378 c -40.87013,61.47872 -105.7284,7.1744 -161.3499,-38.73423 -55.6215,-45.90863 -85.633803,-128.41043 -1.868,-193.3053 83.7658,-64.89486 263.3967,-25.64609 355.2103,45.06818 64.0889,49.36085 91.60693,109.95404 31.8119,123.10404 -59.79503,13.15001 -74.2717,-100.00519 -186.6756,-112.22515 -112.4039,-12.21997 -158.1617,30.97171 -137.9463,55.70558 26.7727,32.75686 141.68773,58.90815 100.8176,120.38688 z"
       id="path5968"
       inkscape:connector-curvature="0"
       sodipodi:nodetypes="zzzszzsz" />
    <text
       xml:space="preserve"
       style="font-size:16px;font-style:normal;font-variant:normal;font-weight:normal;font-stretch:normal;line-height:125%;letter-spacing:0px;word-spacing:0px;fill:#000000;fill-opacity:1;stroke:none;font-family:Nimbus Sans L;-inkscape-font-specification:Nimbus Sans L"
       x="149.29102"
       y="311.87653"
       id="text3557-7-13-5"
       sodipodi:linespacing="125%"><tspan
         sodipodi:role="line"
         id="tspan3559-1-6-5"
         x="149.29102"
         y="311.87653">shrines</tspan></text>
    <path
       style="fill:none;stroke:#000000;stroke-width:1px;stroke-linecap:butt;stroke-linejoin:miter;stroke-opacity:1"
       d="m 174.91743,284.71142 c -46.8526,-4.29091 -48.5712,54.2857 -2.1428,49.99998 46.4284,-4.28572 48.9954,-45.70908 2.1428,-49.99998 z"
       id="path4601-8-9-6-4"
       inkscape:connector-curvature="0"
       sodipodi:nodetypes="zzz" />
    <path
       style="color:#000000;fill:none;stroke:#000000;stroke-width:2.48031497;stroke-linecap:butt;stroke-linejoin:miter;stroke-miterlimit:4;stroke-opacity:1;stroke-dasharray:none;stroke-dashoffset:0;marker:none;visibility:visible;display:inline;overflow:visible;enable-background:accumulate"
       d="m 494.63653,675.86876 c -126.5594,-53.66318 -236.04546,134.49631 -79.7735,162.50599 156.27195,28.00968 206.3329,-108.84281 79.7735,-162.50599 z"
       id="path4559-2-3"
       inkscape:connector-curvature="0"
       sodipodi:nodetypes="zzz" />
    <text
       xml:space="preserve"
       style="font-size:20px;font-style:normal;font-variant:normal;font-weight:bold;font-stretch:normal;text-indent:0;text-align:start;text-decoration:none;line-height:125%;letter-spacing:0px;word-spacing:0px;text-transform:none;direction:ltr;block-progression:tb;writing-mode:lr-tb;text-anchor:start;baseline-shift:baseline;color:#000000;fill:#000000;fill-opacity:1;fill-rule:nonzero;stroke:none;marker:none;visibility:visible;display:inline;overflow:visible;enable-background:accumulate;font-family:Nimbus Sans L;-inkscape-font-specification:Nimbus Sans L Bold"
       x="442.19818"
       y="791.37769"
       id="text4474-1-3"
       sodipodi:linespacing="125%"><tspan
         sodipodi:role="line"
         id="tspan4476-4-5"
         x="442.19818"
         y="791.37769"
         style="font-size:20px;font-style:normal;font-variant:normal;font-weight:bold;font-stretch:normal;text-indent:0;text-align:start;text-decoration:none;line-height:125%;letter-spacing:0px;word-spacing:0px;text-transform:none;direction:ltr;block-progression:tb;writing-mode:lr-tb;text-anchor:start;baseline-shift:baseline;color:#000000;fill:#000000;fill-opacity:1;fill-rule:nonzero;stroke:none;marker:none;visibility:visible;display:inline;overflow:visible;enable-background:accumulate;font-family:Nimbus Sans L;-inkscape-font-specification:Nimbus Sans L Bold">organelles</tspan></text>
    <text
       xml:space="preserve"
       style="font-size:16px;font-style:normal;font-variant:normal;font-weight:normal;font-stretch:normal;text-indent:0;text-align:start;text-decoration:none;line-height:125%;letter-spacing:0px;word-spacing:0px;text-transform:none;direction:ltr;block-progression:tb;writing-mode:lr-tb;text-anchor:start;baseline-shift:baseline;color:#000000;fill:#000000;fill-opacity:1;fill-rule:nonzero;stroke:none;marker:none;visibility:visible;display:inline;overflow:visible;enable-background:accumulate;font-family:Nimbus Sans L;-inkscape-font-specification:Nimbus Sans L"
       x="376.73813"
       y="788.59277"
       id="text3557-7-13-5-7"
       sodipodi:linespacing="125%"><tspan
         sodipodi:role="line"
         id="tspan3559-1-6-5-2"
         x="376.73813"
         y="788.59277">chips</tspan></text>
    <path
       style="fill:none;stroke:#000000;stroke-width:1px;stroke-linecap:butt;stroke-linejoin:miter;stroke-opacity:1"
       d="m 395.35463,761.13183 c -33.2812,-2.14804 -48.5712,48.57141 -2.1428,44.28569 46.4284,-4.28572 35.424,-42.13765 2.1428,-44.28569 z"
       id="path4601-8-9-6-4-9"
       inkscape:connector-curvature="0"
       sodipodi:nodetypes="zzz" />
    <path
       style="color:#000000;fill:none;stroke:#000000;stroke-width:1.41732287;stroke-linecap:butt;stroke-linejoin:miter;stroke-miterlimit:4;stroke-opacity:1;stroke-dasharray:5.66929134, 2.83464567, 1.41732283, 2.83464567;stroke-dashoffset:0;marker:none;marker-start:url(#EmptyDiamondL);marker-end:url(#DotL);visibility:visible;display:inline;overflow:visible;enable-background:accumulate"
       d="M 364.98573,789.63007 C 142.08503,798.06407 35.444849,370.33522 139.11411,316.24383"
       id="path4789-8-7"
       inkscape:connector-curvature="0"
       sodipodi:nodetypes="cc" />
    <path
       style="fill:none;stroke:#000000;stroke-width:1.41732287;stroke-linecap:butt;stroke-linejoin:miter;stroke-miterlimit:4;stroke-opacity:1;stroke-dasharray:5.66929134, 2.83464567, 1.41732283, 2.83464567;stroke-dashoffset:0;marker-start:url(#EmptyDiamondL);marker-end:url(#DotL)"
       d="m 196.99623,291.53267 c 106.509,-50.23895 284.8442,-24.02574 342.4054,65.41226"
       id="path4789-5-1"
       inkscape:connector-curvature="0"
       sodipodi:nodetypes="cc" />
    <path
       style="color:#000000;fill:none;stroke:#000000;stroke-width:1.41732287;stroke-linecap:butt;stroke-linejoin:miter;stroke-miterlimit:4;stroke-opacity:1;stroke-dasharray:5.66929134, 2.83464567, 1.41732283, 2.83464567;stroke-dashoffset:0;marker:none;marker-start:url(#EmptyDiamondL);marker-end:url(#DotL);visibility:visible;display:inline;overflow:visible;enable-background:accumulate"
       d="m 154.96113,336.11427 c -56.781446,42.40898 -10.2635,158.53554 24.4405,161.54496"
       id="path4789-5-2"
       inkscape:connector-curvature="0"
       sodipodi:nodetypes="cc" />
  </g>
</svg>
